<svg width="160" height="78" viewBox="0 0 160 78" fill="none" xmlns="http://www.w3.org/2000/svg">
<path d="M32.8935 29.1658C32.8935 31.7906 31.8883 32.8098 29.2496 32.8098H28.3281C25.7312 32.8098 24.6841 31.8045 24.6841 29.1658V27.7836C24.6841 25.1588 25.7312 24.1396 28.3281 24.1396H29.2496C31.8743 24.1396 32.8935 25.1449 32.8935 27.7836V29.1658ZM36.9983 29.1658V27.7836C36.9983 23.1623 34.3735 20.5096 29.7243 20.5096H27.8813C23.26 20.5096 20.6353 23.1763 20.6353 27.7836V29.1658C20.6353 33.7871 23.26 36.4398 27.8813 36.4398H30.171C30.6038 36.4398 32 36.5375 32 37.822C32 39.0785 30.5899 39.2042 30.171 39.2042H28.3421C27.9791 39.2042 26.9319 39.1065 26.6248 38.2548C26.5271 38.0175 26.4154 37.7941 26.1641 37.7941H22.925C22.6736 37.7941 22.4363 38.0035 22.4642 38.2827C22.6736 40.9494 24.8796 42.8063 27.8813 42.8063H30.6318C33.815 42.8063 36.1047 40.6981 36.1047 37.7941C36.1047 36.5654 35.6719 35.5323 34.9459 34.6806C36.2862 33.4241 36.9983 31.5532 36.9983 29.1658Z" fill="black"/>
<path d="M57.0192 36.6632H41.7033C41.452 36.6632 41.2426 36.4538 41.2426 36.2024V33.4799C41.2426 33.2286 41.452 33.0192 41.7033 33.0192H46.0872V25.7452C46.0872 22.8412 48.3769 20.7609 51.5602 20.7609H56.0698C56.349 20.7609 56.5584 20.9703 56.5584 21.2216V23.9442C56.5584 24.1955 56.349 24.4049 56.0977 24.4049H52.0209C51.5881 24.4049 50.1919 24.4607 50.1919 25.7173V33.0332H56.9912C57.2705 33.0332 57.4799 33.2426 57.4799 33.4939V36.2164C57.4799 36.4538 57.2705 36.6632 57.0192 36.6632Z" fill="black"/>
<path d="M73.6475 26.8761H65.5358C65.7871 24.9215 66.8482 24.1536 69.1379 24.1536H70.0593C72.349 24.1536 73.4241 24.9215 73.6754 26.8761H73.6475ZM77.836 30.0593V27.7976C77.836 23.1763 75.1414 20.5236 70.5201 20.5236H68.6911C64.0698 20.5236 61.4171 23.1902 61.4171 27.7976V29.4171C61.4171 34.0384 64.0838 36.6632 68.6911 36.6632H75.0855C75.3229 36.6632 75.5463 36.4538 75.5463 36.2024V33.4799C75.5463 33.2286 75.3368 33.0192 75.0855 33.0192H69.1518C66.9459 33.0192 65.8848 32.2792 65.6056 30.5061H77.3892C77.6265 30.5201 77.836 30.3106 77.836 30.0593Z" fill="black"/>
<path d="M94.1989 26.8761H86.0872C86.3385 24.9215 87.3996 24.1536 89.6893 24.1536H90.6108C92.9005 24.1536 93.9755 24.9215 94.2129 26.8761H94.1989ZM98.3874 30.0593V27.7976C98.3874 23.1763 95.6928 20.5236 91.0715 20.5236H89.2426C84.6213 20.5236 81.9686 23.1902 81.9686 27.7976V29.4171C81.9686 34.0384 84.6352 36.6632 89.2426 36.6632H95.637C95.8883 36.6632 96.0977 36.4538 96.0977 36.2024V33.4799C96.0977 33.2286 95.8883 33.0192 95.637 33.0192H89.7033C87.4974 33.0192 86.4363 32.2792 86.157 30.5061H97.9406C98.164 30.5201 98.3874 30.3106 98.3874 30.0593Z" fill="black"/>
<path d="M118.436 36.6632H115.253C115.016 36.6632 114.792 36.4538 114.792 36.2024V27.3368C114.792 25.1588 114.276 24.1536 111.148 24.1536H110.227C107.63 24.1536 106.611 25.1588 106.611 27.7976V36.2164C106.611 36.4677 106.401 36.6771 106.15 36.6771H102.967C102.716 36.6771 102.506 36.4677 102.506 36.2164V21.2216C102.506 20.9703 102.716 20.7609 102.967 20.7609H105.899C106.108 20.7609 106.332 20.9145 106.36 21.1518C107.337 20.719 108.468 20.5096 109.752 20.5096H111.581C116.412 20.5096 118.855 22.7993 118.855 27.3368V36.2024C118.883 36.4538 118.674 36.6632 118.436 36.6632Z" fill="black"/>
<path d="M50.2618 57.4241H48.4328C43.7836 57.4241 41.1588 54.7993 41.1588 50.1501V48.3072C41.1588 43.6579 43.7836 41.0332 48.4328 41.0332H50.2618C54.0593 41.0332 56.5305 42.8063 57.2984 46.0175C57.3543 46.2548 57.2984 46.4782 57.0611 46.4782H53.4729C53.2216 46.4782 53.1379 46.2688 53.0122 46.0175C52.4956 45.0681 51.4625 44.6771 49.801 44.6771H48.8796C46.2548 44.6771 45.2356 45.6824 45.2356 48.3211V50.1501C45.2356 52.7749 46.2408 53.7941 48.8796 53.7941H49.801C51.4485 53.7941 52.4956 53.4031 53.0122 52.4538C53.1379 52.2024 53.2216 51.993 53.4729 51.993H57.0471C57.2845 51.993 57.3543 52.2024 57.2845 52.4538C56.5305 55.651 54.0593 57.4241 50.2618 57.4241Z" fill="#3F9C35"/>
<path d="M73.8709 52.4119C73.8709 53.6684 72.4887 53.7941 72.0698 53.7941H67.5184C67.0855 53.7941 65.6894 53.6684 65.6894 52.4119V51.9511C65.6894 50.6667 67.0995 50.6108 67.5184 50.6108H72.0698C72.5026 50.6108 73.8709 50.6667 73.8709 51.9511V52.4119ZM77.9756 56.726V48.5305C77.9756 43.9093 75.3089 41.2845 70.7016 41.2845H64.3072C64.0559 41.2845 63.8744 41.4939 63.8744 41.7452V44.4677C63.8744 44.7051 64.0559 44.9284 64.3072 44.9284H70.2409C72.2932 44.9284 73.3683 45.5707 73.7313 47.1065C73.3264 47.0506 72.9634 46.9808 72.5445 46.9808H67.0716C63.9163 46.9808 61.5986 49.0611 61.5986 51.9651V52.4258C61.5986 55.3298 63.9163 57.438 67.0716 57.438H72.5445C73.1588 57.438 73.7033 57.3403 74.2618 57.1867C74.2897 57.1867 74.3177 57.1867 74.3595 57.1867H77.5428C77.7522 57.1867 77.9756 56.9634 77.9756 56.726Z" fill="#3F9C35"/>
<path d="M97.9406 57.1867H82.6387C82.3874 57.1867 82.178 56.9773 82.178 56.726V54.0035C82.178 53.7522 82.3874 53.5428 82.6387 53.5428H87.0087V46.2688C87.0087 43.3647 89.2984 41.2845 92.4816 41.2845H96.9912C97.2705 41.2845 97.4799 41.4939 97.4799 41.7452V44.4677C97.4799 44.7051 97.2705 44.9285 97.0192 44.9285H92.9424C92.5096 44.9285 91.0994 44.9843 91.0994 46.2408V53.5567H97.8988C98.178 53.5567 98.3874 53.7661 98.3874 54.0175V56.74C98.4014 56.9634 98.1919 57.1867 97.9406 57.1867Z" fill="#3F9C35"/>
<path d="M114.75 49.6894C114.75 52.3141 113.745 53.3333 111.106 53.3333H110.185C107.588 53.3333 106.541 52.3281 106.541 49.6894V48.3072C106.541 45.6824 107.574 44.6632 110.185 44.6632H111.106C113.731 44.6632 114.75 45.6684 114.75 48.3072V49.6894ZM118.841 49.6894V48.3072C118.841 43.6859 116.216 41.0332 111.567 41.0332H109.738C105.117 41.0332 102.492 43.6859 102.492 48.3072V49.6894C102.492 54.3106 105.117 56.9773 109.738 56.9773H112.028C112.461 56.9773 113.857 57.075 113.857 58.3456C113.857 59.6021 112.447 59.7277 112.028 59.7277H110.185C109.822 59.7277 108.775 59.63 108.468 58.7784C108.384 58.541 108.258 58.3176 108.007 58.3176H104.768C104.517 58.3176 104.279 58.5271 104.307 58.8063C104.517 61.4729 106.722 63.3298 109.724 63.3298H112.475C115.658 63.3298 117.948 61.2216 117.948 58.3176C117.948 57.089 117.515 56.0558 116.789 55.2042C118.143 53.9337 118.841 52.0768 118.841 49.6894Z" fill="#3F9C35"/>
<path d="M135.246 50.1501C135.246 52.7749 134.241 53.7941 131.602 53.7941H130.681C128.084 53.7941 127.037 52.7888 127.037 50.1501V48.3072C127.037 45.6824 128.07 44.6632 130.681 44.6632H131.602C134.227 44.6632 135.246 45.6684 135.246 48.3072V50.1501ZM139.351 50.1501V48.3072C139.351 43.6859 136.726 41.0332 132.077 41.0332H130.248C125.627 41.0332 123.002 43.6859 123.002 48.3072V50.1361C123.002 54.7574 125.627 57.4101 130.248 57.4101H132.077C136.726 57.4241 139.351 54.7714 139.351 50.1501Z" fill="#3F9C35"/>
</svg>
